# xmcd CD database file
#
# Track frame offsets:
#	150
#	13843
#	29509
#	43275
#	64021
#	77958
#	90658
#	101219
#	113053
#	127559
#	139624
#	155600
#
# Disc length: 2299 seconds
#
# Revision: 2
# Processed by: cddbd v1.5.2PL0 Copyright (c) Steve Scherf et al.
# Submitted via: CDex 1.70beta2
#
DISCID=9c08f90c
DTITLE=Laura Cantrell - No Way There From Here
DYEAR=2014
DGENRE=Country
TTITLE0=All The Girls Are Complicated
TTITLE1=Starry Skies
TTITLE2=Letter She Sent
TTITLE3=No Way There From Here
TTITLE4=Glass Armour
TTITLE5=Beg Or Borrow Days
TTITLE6=Driving Down Your Street
TTITLE7=When It Comes To You
TTITLE8=Can't Wait
TTITLE9=Barely Said A Thing
TTITLE10=Washday Blues
TTITLE11=Someday Sparrow
EXTD=YEAR: 2014
EXTT0=
EXTT1=
EXTT2=
EXTT3=
EXTT4=
EXTT5=
EXTT6=
EXTT7=
EXTT8=
EXTT9=
EXTT10=
EXTT11=
PLAYORDER=
